<svg width="99" height="23" viewBox="0 0 99 23" fill="none" xmlns="http://www.w3.org/2000/svg">
<path d="M0.726562 0.601562L3.70312 0.589844C4.60938 0.589844 6.01562 0.597656 7.92188 0.613281V19.0117H0.75L0.726562 0.601562ZM25.0739 11.9102C25.0583 11.9883 25.0505 12.0352 25.0505 12.0508V12.1445C25.027 13.4336 24.7302 14.5938 24.1598 15.625H24.1716C23.3747 16.8438 22.2614 17.7812 20.8317 18.4375C19.4098 19.0938 18.0075 19.4219 16.6247 19.4219C15.2419 19.4219 14.0934 19.2852 13.1794 19.0117C12.2731 18.7461 11.4333 18.3555 10.6598 17.8398C9.88641 17.3242 9.31219 16.8281 8.93719 16.3516C8.04656 15.2266 7.60125 13.6367 7.60125 11.582C7.60125 11.5117 7.61297 11.4531 7.63641 11.4062V11.2188C7.61297 11.1875 7.60125 11.1562 7.60125 11.125L7.62469 10.9961H7.61297C7.76141 9.62891 8.05047 8.73047 8.48016 8.30078C8.48016 8.21484 8.53484 8.11719 8.64422 8.00781V8.01953L8.82 7.73828C9.74188 6.55859 10.7966 5.75 11.9841 5.3125L12.3942 5.16016C12.9098 4.91016 13.6325 4.72266 14.5622 4.59766L14.9372 4.5625C14.9919 4.55469 15.1013 4.54688 15.2653 4.53906C15.4372 4.53125 15.5583 4.51562 15.6286 4.49219L16.1325 4.50391C16.1559 4.49609 16.1833 4.49219 16.2145 4.49219C16.2458 4.49219 16.2809 4.49609 16.32 4.50391L16.3083 4.49219C16.3552 4.51562 16.4255 4.52734 16.5192 4.52734C16.5505 4.49609 16.6052 4.48047 16.6833 4.48047C18.3786 4.48047 19.82 4.82812 21.0075 5.52344L21.2419 5.62891C23.7966 6.85547 25.0739 8.94922 25.0739 11.9102ZM17.7848 11.9805C17.7536 10.4258 17.5309 9.375 17.1169 8.82812C16.945 8.60156 16.7341 8.48828 16.4841 8.48828C16.2419 8.48828 16.027 8.63281 15.8395 8.92188C15.652 9.20312 15.4997 9.64844 15.3825 10.2578C15.2731 10.8672 15.2184 11.4102 15.2184 11.8867C15.2184 12.3555 15.238 12.7617 15.277 13.1055C15.3239 13.4414 15.3903 13.8008 15.4763 14.1836C15.5622 14.5586 15.695 14.875 15.8747 15.1328C16.0544 15.3828 16.2575 15.5078 16.4841 15.5078C17.3513 15.5078 17.7848 14.332 17.7848 11.9805ZM39.8705 7.32812C41.3236 5.42969 42.7728 4.48047 44.2181 4.48047C45.6634 4.48047 46.9369 5.01562 48.0384 6.08594C48.5775 6.61719 48.9408 7.20703 49.1283 7.85547L49.2103 8.17188C49.4212 8.90625 49.5267 9.36328 49.5267 9.54297C49.5267 9.71484 49.5111 9.85547 49.4798 9.96484C49.5345 10.0117 49.5619 10.082 49.5619 10.1758L49.5384 10.6328C49.5541 11.1953 49.5619 11.5898 49.5619 11.8164V19.0117H42.4603L42.4486 12.1211L42.4603 11.8633C42.4603 10.7305 42.1439 10.1641 41.5111 10.1641C40.8002 10.1641 40.4447 10.7891 40.4447 12.0391L40.4681 12.8477V19L37.2103 19.0117H33.9642L33.9525 12.7188L33.9759 11.957C33.9759 10.9414 33.6634 10.3398 33.0384 10.1523C32.3041 10.1914 31.9369 10.7578 31.9369 11.8516L31.9603 12.5547V19L28.1869 19.0117H24.4369L24.4252 11.9688V4.97266L27.6361 4.96094H30.8587L30.9408 5.24219C31.2298 6.26562 31.4486 7.0625 31.597 7.63281C32.1048 6.75781 32.6947 6.01562 33.3666 5.40625C34.0462 4.78906 34.722 4.48047 35.3939 4.48047C35.6048 4.48047 35.8158 4.48047 36.0267 4.48047C36.7064 4.48047 37.4017 4.76172 38.1127 5.32422C38.8236 5.87891 39.4095 6.54688 39.8705 7.32812ZM65.7412 11.0664L65.7647 11.2773V11.3477L65.753 11.9453C65.7139 15.6484 64.5225 17.9922 62.1787 18.9766C61.46 19.2734 60.6319 19.4219 59.6944 19.4219C58.4131 19.4219 57.1631 18.8477 55.9444 17.6992L55.4053 18.0742L54.9014 19.0586H48.9014L48.8897 9.91797V0.777344C50.4912 0.761719 52.8311 0.753906 55.9092 0.753906C55.9248 1.48828 55.9327 2.375 55.9327 3.41406C55.9327 4.44531 55.9248 5.42188 55.9092 6.34375C56.5967 5.75781 57.3272 5.30078 58.1006 4.97266C58.8741 4.64453 59.6084 4.48047 60.3037 4.48047C61.6397 4.48047 62.7608 4.93359 63.667 5.83984C63.8467 5.98828 63.9834 6.13672 64.0772 6.28516C64.1709 6.43359 64.2412 6.52734 64.2881 6.56641V6.55469L64.4053 6.64844C64.8819 7.28125 65.2608 8.10938 65.542 9.13281C65.6827 9.73438 65.753 10.1875 65.753 10.4922C65.753 10.7969 65.7491 10.9883 65.7412 11.0664ZM58.4991 12.4492C58.4991 11.6992 58.4248 11.0156 58.2764 10.3984C57.9952 9.24219 57.5655 8.66406 56.9873 8.66406C56.5186 8.66406 56.1553 9.03125 55.8975 9.76562C55.6397 10.5 55.5108 11.5312 55.5108 12.8594C55.5108 13.7656 55.7412 14.5547 56.2022 15.2266C56.4522 15.5781 56.7139 15.7539 56.9873 15.7539C57.2686 15.7539 57.5108 15.6523 57.7139 15.4492C57.917 15.2383 58.0967 14.8945 58.253 14.418C58.417 13.9336 58.4991 13.543 58.4991 13.2461C58.4991 12.9414 58.4952 12.7773 58.4873 12.7539V12.7305C58.4952 12.6992 58.4991 12.6562 58.4991 12.6016V12.4492ZM82.3542 11.9102C82.3386 11.9883 82.3308 12.0352 82.3308 12.0508V12.1445C82.3073 13.4336 82.0105 14.5938 81.4402 15.625H81.4519C80.655 16.8438 79.5417 17.7812 78.112 18.4375C76.6902 19.0938 75.2878 19.4219 73.905 19.4219C72.5222 19.4219 71.3737 19.2852 70.4597 19.0117C69.5534 18.7461 68.7136 18.3555 67.9402 17.8398C67.1667 17.3242 66.5925 16.8281 66.2175 16.3516C65.3269 15.2266 64.8816 13.6367 64.8816 11.582C64.8816 11.5117 64.8933 11.4531 64.9167 11.4062V11.2188C64.8933 11.1875 64.8816 11.1562 64.8816 11.125L64.905 10.9961H64.8933C65.0417 9.62891 65.3308 8.73047 65.7605 8.30078C65.7605 8.21484 65.8152 8.11719 65.9245 8.00781V8.01953L66.1003 7.73828C67.0222 6.55859 68.0769 5.75 69.2644 5.3125L69.6745 5.16016C70.1902 4.91016 70.9128 4.72266 71.8425 4.59766L72.2175 4.5625C72.2722 4.55469 72.3816 4.54688 72.5456 4.53906C72.7175 4.53125 72.8386 4.51562 72.9089 4.49219L73.4128 4.50391C73.4362 4.49609 73.4636 4.49219 73.4948 4.49219C73.5261 4.49219 73.5612 4.49609 73.6003 4.50391L73.5886 4.49219C73.6355 4.51562 73.7058 4.52734 73.7995 4.52734C73.8308 4.49609 73.8855 4.48047 73.9636 4.48047C75.6589 4.48047 77.1003 4.82812 78.2878 5.52344L78.5222 5.62891C81.0769 6.85547 82.3542 8.94922 82.3542 11.9102ZM75.0652 11.9805C75.0339 10.4258 74.8112 9.375 74.3972 8.82812C74.2253 8.60156 74.0144 8.48828 73.7644 8.48828C73.5222 8.48828 73.3073 8.63281 73.1198 8.92188C72.9323 9.20312 72.78 9.64844 72.6628 10.2578C72.5534 10.8672 72.4987 11.4102 72.4987 11.8867C72.4987 12.3555 72.5183 12.7617 72.5573 13.1055C72.6042 13.4414 72.6706 13.8008 72.7566 14.1836C72.8425 14.5586 72.9753 14.875 73.155 15.1328C73.3347 15.3828 73.5378 15.5078 73.7644 15.5078C74.6316 15.5078 75.0652 14.332 75.0652 11.9805ZM98.8383 8.94531C98.8383 8.94531 98.8578 13.543 98.8969 22.7383H91.7719L91.7602 17.5938C91.3539 17.7812 91.0219 17.9805 90.7641 18.1914C90.4203 18.5352 89.8969 18.8164 89.1937 19.0352C88.4906 19.2617 87.8422 19.375 87.2484 19.375C86.225 19.375 85.2875 19.0586 84.4359 18.4258C83.5922 17.793 82.9437 16.9961 82.4906 16.0352C82.0375 15.0664 81.8109 14.0586 81.8109 13.0117C81.7562 12.9102 81.7289 12.793 81.7289 12.6602C81.7289 12.5273 81.7523 12.3789 81.7992 12.2148C81.7602 12.1445 81.7406 12.0898 81.7406 12.0508C81.7406 11.0742 81.8852 10.0938 82.1742 9.10938C82.4633 8.125 82.8812 7.27344 83.4281 6.55469C84.6234 5.16406 86.1312 4.46875 87.9516 4.46875C88.2719 4.5 88.682 4.57031 89.182 4.67969C89.682 4.78906 89.9984 4.91406 90.1312 5.05469C90.5687 5.25781 91.0492 5.65234 91.5727 6.23828L91.7133 6.36719L92.0297 6.56641C92.1625 6.23047 92.2797 5.96484 92.3812 5.76953C92.4906 5.56641 92.5609 5.42969 92.5922 5.35938L92.7094 5.11328C92.7094 5.10547 92.7289 5.06641 92.768 4.99609C92.8148 4.92578 92.8422 4.87891 92.85 4.85547C93.3812 4.93359 95.3734 4.97266 98.8266 4.97266L98.8383 8.94531ZM91.9945 12.5898L92.018 12.0625C92.018 9.8125 91.5414 8.58594 90.5883 8.38281C90.143 8.44531 89.8422 8.64062 89.6859 8.96875C89.5375 9.29688 89.432 9.61719 89.3695 9.92969C89.3148 10.2422 89.2523 10.5391 89.182 10.8203C89.1195 11.0938 89.0883 11.4102 89.0883 11.7695V12.3203C89.0883 14.3984 89.5531 15.5664 90.4828 15.8242C90.85 15.793 91.1039 15.6953 91.2445 15.5312C91.4867 15.2344 91.6742 14.7852 91.807 14.1836L92.0062 12.7539L91.9945 12.5898Z" fill="#30AF5B"/>
</svg>
